<?xml version="1.0" encoding="UTF-8" standalone="no"?>
<svg
   viewBox="0 0 26 26"
   width="104px"
   height="104px"
   version="1.1"
   id="svg1"
   sodipodi:docname="icon.svg"
   inkscape:version="1.3.2 (091e20e, 2023-11-25)"
   xmlns:inkscape="http://www.inkscape.org/namespaces/inkscape"
   xmlns:sodipodi="http://sodipodi.sourceforge.net/DTD/sodipodi-0.dtd"
   xmlns="http://www.w3.org/2000/svg"
   xmlns:svg="http://www.w3.org/2000/svg">
  <defs
     id="defs1" />
  <sodipodi:namedview
     id="namedview1"
     pagecolor="#ffffff"
     bordercolor="#666666"
     borderopacity="1.0"
     inkscape:showpageshadow="2"
     inkscape:pageopacity="0.0"
     inkscape:pagecheckerboard="0"
     inkscape:deskcolor="#d1d1d1"
     inkscape:zoom="5.3173077"
     inkscape:cx="52"
     inkscape:cy="52"
     inkscape:window-width="1088"
     inkscape:window-height="1212"
     inkscape:window-x="0"
     inkscape:window-y="25"
     inkscape:window-maximized="0"
     inkscape:current-layer="svg1" />
  <path
     d="M 1.6875,0.23508137 C 0.757813,0.23508137 0,0.98604254 0,1.9073237 V 14.418174 c 0,0.921282 0.757813,1.672242 1.6875,1.672242 H 4 v 2.972875 l 3,2.972875 h 3 v 2.291592 C 10,25.24904 10.757813,26 11.6875,26 h 12.625 C 25.242188,26 26,25.24904 26,24.327758 v -12.51085 c 0,-0.921281 -0.757812,-1.672243 -1.6875,-1.672243 H 16 V 1.9073237 C 16,0.98604254 15.242188,0.23508137 14.3125,0.23508137 Z M 2,2.2169982 h 12 v 7.9276668 h -2.3125 c -0.386719,0 -0.746094,0.12387 -1.03125,0.340642 -0.410156,-0.236126 -0.785156,-0.452898 -1.125,-0.6812835 0.824219,-0.8516049 1.625,-1.8851438 2.25,-3.1277125 0.08594,-0.1509665 0.128906,-0.3212875 0.125,-0.4954792 H 13 V 4.198915 H 9 V 3.2079566 H 7 V 4.198915 H 3 V 6.1808318 H 5.125 C 4.859375,6.2776049 4.644531,6.4788933 4.539063,6.7382459 4.429688,6.9975986 4.441406,7.2917894 4.5625,7.5433996 c 0,0 0.332031,0.6967677 1.125,1.57934 0.207031,0.2283852 0.445313,0.4838662 0.71875,0.7432188 -1.417969,1.0257966 -2.625,1.4864376 -2.625,1.4864376 -0.375,0.08129 -0.671875,0.371609 -0.757812,0.74709 -0.085938,0.371609 0.050781,0.758702 0.351562,0.99483 0.304688,0.239997 0.714844,0.282577 1.0625,0.116127 0,0 1.679688,-0.619349 3.5625,-2.074819 0.519531,0.37548 1.078125,0.766445 1.75,1.145796 0.078125,0.04258 0.164063,0.07355 0.25,0.0929 v 1.734177 H 6 L 5.5,13.61302 5,14.108499 H 2 Z M 5.8125,6.1808318 H 9.75 C 9.21875,7.1253391 8.601563,7.903396 7.9375,8.5653255 7.640625,8.2982315 7.390625,8.0466212 7.1875,7.8221067 6.535156,7.0982423 6.375,6.7382459 6.375,6.7382459 6.273438,6.482765 6.070313,6.2814765 5.8125,6.1808318 Z m 11.15625,7.2463832 h 2.09375 l 3.4375,9.2283 h -2.15625 l -0.6875,-1.981916 h -3.3125 l -0.6875,1.981916 H 13.5 Z m 1,2.539331 -1.125,3.251582 h 2.3125 l -1.125,-3.251582 z M 7,16.090416 h 3 v 2.972875 H 7 Z"
     id="path1"
     style="stroke-width:0.995469" />
</svg>
