<?xml version="1.0" encoding="UTF-8" standalone="no"?>
<svg
   version="1.1"
   id="Layer_1"
   x="0px"
   y="0px"
   viewBox="0 0 226.77 226.77"
   style="enable-background:new 0 0 226.77 226.77;"
   xml:space="preserve"
   sodipodi:docname="quart_babel_full_logo_color.svg"
   inkscape:version="1.3.2 (091e20e, 2023-11-25)"
   xmlns:inkscape="http://www.inkscape.org/namespaces/inkscape"
   xmlns:sodipodi="http://sodipodi.sourceforge.net/DTD/sodipodi-0.dtd"
   xmlns="http://www.w3.org/2000/svg"
   xmlns:svg="http://www.w3.org/2000/svg"
   xmlns:rdf="http://www.w3.org/1999/02/22-rdf-syntax-ns#"
   xmlns:cc="http://creativecommons.org/ns#"
   xmlns:dc="http://purl.org/dc/elements/1.1/"><metadata
   id="metadata881"><rdf:RDF><cc:Work
       rdf:about=""><dc:format>image/svg+xml</dc:format><dc:type
         rdf:resource="http://purl.org/dc/dcmitype/StillImage" /><dc:title /></cc:Work></rdf:RDF></metadata><defs
   id="defs879" /><sodipodi:namedview
   pagecolor="#ffffff"
   bordercolor="#666666"
   borderopacity="1"
   objecttolerance="10"
   gridtolerance="10"
   guidetolerance="10"
   inkscape:pageopacity="0"
   inkscape:pageshadow="2"
   inkscape:window-width="1920"
   inkscape:window-height="965"
   id="namedview877"
   showgrid="false"
   inkscape:zoom="2.9457159"
   inkscape:cx="113.21526"
   inkscape:cy="113.385"
   inkscape:window-x="1117"
   inkscape:window-y="69"
   inkscape:window-maximized="0"
   inkscape:current-layer="layer2"
   inkscape:document-rotation="0"
   inkscape:lockguides="true"
   inkscape:showpageshadow="2"
   inkscape:pagecheckerboard="0"
   inkscape:deskcolor="#d1d1d1" />
<path
   style="fill:#B7895B;"
   d="M34.777,66.865l-17.058,4.817c-1.022,0.269-2.075-0.316-2.386-1.326L10.56,53.387  c-0.269-1.022,0.316-2.076,1.326-2.387l17.058-4.817c1.022-0.269,2.075,0.316,2.386,1.326l4.773,16.969  C36.412,65.495,35.793,66.555,34.777,66.865z"
   id="path833"
   inkscape:export-xdpi="96"
   inkscape:export-ydpi="96"
   inkscape:export-filename="../logo.png" />
<path
   style="fill:#C49A6C;"
   d="M13.874,60.545l-1.193-4.286c-0.619-2.165,0.663-4.375,2.784-4.994l10.606-3.005  c2.165-0.619,4.375,0.663,4.994,2.784l1.193,4.286C32.258,55.33,13.874,60.545,13.874,60.545z"
   id="path835"
   inkscape:export-xdpi="96"
   inkscape:export-ydpi="96"
   inkscape:export-filename="/Users/chrisrood/Desktop/quart-babel/logo.png" />
<path
   style="fill:#B7895B;"
   d="M23.552,57.806c0,0,5.612-7.38,1.591-9.28l2.607-1.37l3.359,2.298l1.723,6.187  C32.832,55.641,23.552,57.806,23.552,57.806z"
   id="path837"
   inkscape:export-xdpi="96"
   inkscape:export-ydpi="96"
   inkscape:export-filename="/Users/chrisrood/Desktop/quart-babel/logo.png" />
<path
   style="fill:#99D5E8;"
   d="M12.856,64.045l22.329-6.306l13.044,46.188l-22.328,6.306L12.856,64.045z"
   id="path839"
   inkscape:export-xdpi="96"
   inkscape:export-ydpi="96"
   inkscape:export-filename="/Users/chrisrood/Desktop/quart-babel/logo.png" />
<ellipse
   transform="matrix(0.9624 -0.2718 0.2718 0.9624 -32.6596 16.9089)"
   style="fill:#99D5E8;"
   cx="44.712"
   cy="126.356"
   rx="43.751"
   ry="43.751"
   id="ellipse841"
   inkscape:export-xdpi="96"
   inkscape:export-ydpi="96"
   inkscape:export-filename="/Users/chrisrood/Desktop/quart-babel/logo.png" />
<ellipse
   transform="matrix(0.9624 -0.2718 0.2718 0.9624 -32.6596 16.9089)"
   style="fill:#BCE3F4;"
   cx="44.712"
   cy="126.356"
   rx="41.497"
   ry="41.497"
   id="ellipse843"
   inkscape:export-xdpi="96"
   inkscape:export-ydpi="96"
   inkscape:export-filename="/Users/chrisrood/Desktop/quart-babel/logo.png" />
<path
   style="fill:#BCE3F4;"
   d="M35.44,62.092l-20.77,5.877c-1.679,0.486-3.403-0.53-3.889-2.165  c-0.486-1.679,0.53-3.403,2.165-3.889l20.77-5.877c1.679-0.486,3.403,0.53,3.889,2.165C38.091,59.838,37.119,61.606,35.44,62.092z"
   id="path845"
   inkscape:export-xdpi="96"
   inkscape:export-ydpi="96"
   inkscape:export-filename="/Users/chrisrood/Desktop/quart-babel/logo.png" />
<path
   style="opacity:0.35;fill:#FFFFFF;enable-background:new    ;"
   d="M35.086,96.605c3.977,4.11-6.408,4.198-13.08,10.65  s-7.159,16.837-11.136,12.683c-3.977-4.11-1.768-12.683,4.905-19.135C22.492,94.351,31.109,92.451,35.086,96.605z"
   id="path847"
   inkscape:export-xdpi="96"
   inkscape:export-ydpi="96"
   inkscape:export-filename="/Users/chrisrood/Desktop/quart-babel/logo.png" />
<path
   style="fill:#BCE3F4;"
   d="M16.081,68.906l19.054-5.381l6.378,22.583l-19.054,5.381L16.081,68.906z"
   id="path849"
   inkscape:export-xdpi="96"
   inkscape:export-ydpi="96"
   inkscape:export-filename="/Users/chrisrood/Desktop/quart-babel/logo.png" />
<path
   style="fill:#99D5E8;"
   d="M35.086,63.506c0,0,0.928,21.742-5.612,23.996c0,0,21.919-3.756,31.155,0.53  c0,0-11.313-4.596-15.644-3.756C40.61,85.071,35.086,63.506,35.086,63.506z"
   id="path851"
   inkscape:export-xdpi="96"
   inkscape:export-ydpi="96"
   inkscape:export-filename="/Users/chrisrood/Desktop/quart-babel/logo.png" />
<linearGradient
   id="SVGID_1_"
   gradientUnits="userSpaceOnUse"
   x1="6.7409"
   y1="129.5471"
   x2="82.6596"
   y2="129.5471"
   gradientTransform="matrix(1 0 0 1 0 -0.05)">
	<stop
   offset="0"
   style="stop-color:#FAEB48"
   id="stop853" />
	<stop
   offset="0.04"
   style="stop-color:#FEE72F"
   id="stop855" />
	<stop
   offset="0.117"
   style="stop-color:#FFD51D"
   id="stop857" />
	<stop
   offset="0.196"
   style="stop-color:#FDCA12"
   id="stop859" />
	<stop
   offset="0.281"
   style="stop-color:#FDC710"
   id="stop861" />
	<stop
   offset="0.668"
   style="stop-color:#F39040"
   id="stop863" />
	<stop
   offset="0.888"
   style="stop-color:#ED683C"
   id="stop865" />
	<stop
   offset="1"
   style="stop-color:#E83E3B"
   id="stop867" />
</linearGradient>
<path
   style="fill:url(#SVGID_1_);"
   d="M67.168,95.721c7.778,2.43,11.666,11.799,14.053,20.284  c5.701,20.195-6.054,41.142-26.205,46.842s-41.142-6.054-46.842-26.205c-1.8-6.358-1.906-13.076-0.309-19.488  c0,0,9.147,14.583,25.056,7.336C48.829,117.286,45.824,89.048,67.168,95.721z"
   id="path870"
   inkscape:export-xdpi="96"
   inkscape:export-ydpi="96"
   inkscape:export-filename="/Users/chrisrood/Desktop/quart-babel/logo.png" />


<g
   inkscape:groupmode="layer"
   id="layer1"
   inkscape:label="Quart Babel"><text
     xml:space="preserve"
     style="font-size:44.9102px;line-height:28.54px;font-family:'IM FELL English';-inkscape-font-specification:'IM FELL English';stroke-width:1.12275"
     x="120.83057"
     y="86.093201"
     id="text885"
     transform="scale(0.73456318,1.3613533)"
     inkscape:export-xdpi="96"
     inkscape:export-ydpi="96"
     inkscape:export-filename="/Users/chrisrood/Desktop/quart-babel/logo.png"><tspan
       x="120.83057"
       y="86.093201"
       sodipodi:role="line"
       style="font-size:30px;line-height:28.54px;stroke-width:1.12275"
       id="tspan4"><tspan
   id="tspan2"
   style="font-size:33.6827px;line-height:28.54px;stroke-width:1.12275">Quart </tspan></tspan><tspan
       x="120.83057"
       y="117.68301"
       sodipodi:role="line"
       style="font-size:30px;line-height:28.54px;stroke-width:1.12275"
       id="tspan5">LibreTranslate</tspan></text><text
     xml:space="preserve"
     style="font-size:40px;line-height:1.25;font-family:'IM FELL English';-inkscape-font-specification:'IM FELL English'"
     x="55.334595"
     y="127.98247"
     id="text2988"
     inkscape:export-filename="/Users/chrisrood/Desktop/quart-babel/logo.png"
     inkscape:export-xdpi="96"
     inkscape:export-ydpi="96"><tspan
       sodipodi:role="line"
       id="tspan2986"
       x="55.334595"
       y="127.98247"> </tspan></text><text
     xml:space="preserve"
     style="font-size:40px;line-height:1.25;font-family:'IM FELL English';-inkscape-font-specification:'IM FELL English'"
     x="274.63611"
     y="103.5402"
     id="text6"><tspan
       sodipodi:role="line"
       id="tspan6"
       x="274.63611"
       y="103.5402"> </tspan></text></g><g
   inkscape:groupmode="layer"
   id="layer2"
   inkscape:label="Logo"><path
     d="m 46.703324,112.42186 c -1.157481,0 -2.100974,0.97545 -2.100974,2.17214 v 16.25085 c 0,1.19668 0.943493,2.17214 2.100974,2.17214 h 2.879112 v 3.86159 l 3.735063,3.86159 h 3.735065 v 2.97664 c 0,1.19668 0.943493,2.17214 2.100971,2.17214 H 74.87193 c 1.157484,0 2.100978,-0.97546 2.100978,-2.17214 v -16.25086 c 0,-1.19668 -0.943494,-2.17214 -2.100978,-2.17214 H 64.522694 V 114.594 c 0,-1.19669 -0.943494,-2.17214 -2.100979,-2.17214 z m 0.389069,2.5744 h 14.940253 v 10.29755 h -2.879111 c -0.481471,0 -0.9289,0.16091 -1.283924,0.44249 -0.510652,-0.30672 -0.977539,-0.58829 -1.400651,-0.88496 1.026174,-1.10618 2.023161,-2.44869 2.8013,-4.06269 0.106997,-0.19612 0.160484,-0.41734 0.155627,-0.64362 h 1.361742 v -2.57438 H 55.80754 v -1.2872 h -2.490041 v 1.2872 h -4.980085 v 2.57438 h 2.645671 c -0.330709,0.12571 -0.598196,0.38716 -0.729505,0.72405 -0.136175,0.33689 -0.121586,0.71902 0.02916,1.04585 0,0 0.413384,0.90505 1.40065,2.05147 0.257756,0.29666 0.554423,0.62851 0.894858,0.9654 -1.765402,1.33244 -3.268181,1.93078 -3.268181,1.93078 -0.466882,0.1056 -0.836498,0.48271 -0.943491,0.97043 -0.106995,0.4827 0.06322,0.98551 0.437702,1.29223 0.379344,0.31173 0.889997,0.36704 1.322835,0.15084 0,0 2.091247,-0.8045 4.435389,-2.69507 0.646821,0.48773 1.342286,0.99557 2.178783,1.48832 0.09727,0.0554 0.204264,0.0956 0.31126,0.12068 v 2.25259 h -4.980086 l -0.622511,-0.6436 -0.62251,0.6436 h -3.735052 z m 4.746644,5.14877 h 4.902275 c -0.661422,1.22687 -1.429832,2.23751 -2.256605,3.09732 -0.369616,-0.34694 -0.68087,-0.67377 -0.933765,-0.96539 -0.812185,-0.94026 -1.011581,-1.40788 -1.011581,-1.40788 -0.126448,-0.33185 -0.379343,-0.59332 -0.700324,-0.72405 z m 13.889766,9.41262 h 2.606767 l 4.279761,11.98701 h -2.684576 l -0.855956,-2.57439 h -4.124134 l -0.855948,2.57439 h -2.684576 z m 1.245024,3.29844 -1.40065,4.22361 h 2.879111 l -1.400644,-4.22361 z m -13.656328,0.1609 h 3.735065 v 3.86159 h -3.735065 z"
     id="path1"
     style="stroke-width:1.26593" /></g></svg>
